<svg width="284" height="84" viewBox="0 0 284 84" fill="none" xmlns="http://www.w3.org/2000/svg">
<path d="M45.1406 40.2461V60.5312C44.3438 61.4922 43.1133 62.5352 41.4492 63.6602C39.7852 64.7617 37.6406 65.7109 35.0156 66.5078C32.3906 67.3047 29.2148 67.7031 25.4883 67.7031C22.1836 67.7031 19.1719 67.1641 16.4531 66.0859C13.7344 64.9844 11.3906 63.3789 9.42188 61.2695C7.47656 59.1602 5.97656 56.582 4.92188 53.5352C3.86719 50.4648 3.33984 46.9609 3.33984 43.0234V39.8242C3.33984 35.8867 3.84375 32.3828 4.85156 29.3125C5.88281 26.2422 7.34766 23.6523 9.24609 21.543C11.1445 19.4336 13.4062 17.8281 16.0312 16.7266C18.6562 15.625 21.5742 15.0742 24.7852 15.0742C29.2383 15.0742 32.8945 15.8008 35.7539 17.2539C38.6133 18.6836 40.793 20.6758 42.293 23.2305C43.8164 25.7617 44.7539 28.668 45.1055 31.9492H34.875C34.6172 30.2148 34.125 28.7031 33.3984 27.4141C32.6719 26.125 31.6289 25.1172 30.2695 24.3906C28.9336 23.6641 27.1992 23.3008 25.0664 23.3008C23.3086 23.3008 21.7383 23.6641 20.3555 24.3906C18.9961 25.0938 17.8477 26.1367 16.9102 27.5195C15.9727 28.9023 15.2578 30.6133 14.7656 32.6523C14.2734 34.6914 14.0273 37.0586 14.0273 39.7539V43.0234C14.0273 45.6953 14.2852 48.0625 14.8008 50.125C15.3164 52.1641 16.0781 53.8867 17.0859 55.293C18.1172 56.6758 19.3828 57.7188 20.8828 58.4219C22.3828 59.125 24.1289 59.4766 26.1211 59.4766C27.7852 59.4766 29.168 59.3359 30.2695 59.0547C31.3945 58.7734 32.2969 58.4336 32.9766 58.0352C33.6797 57.6133 34.2188 57.2148 34.5938 56.8398V47.7695H24.9609V40.2461H45.1406ZM63.1406 37.2578V67H53.0156V28.9609H62.543L63.1406 37.2578ZM74.6016 28.7148L74.4258 38.1016C73.9336 38.0312 73.3359 37.9727 72.6328 37.9258C71.9531 37.8555 71.332 37.8203 70.7695 37.8203C69.3398 37.8203 68.0977 38.0078 67.043 38.3828C66.0117 38.7344 65.1445 39.2617 64.4414 39.9648C63.7617 40.668 63.2461 41.5234 62.8945 42.5312C62.5664 43.5391 62.3789 44.6875 62.332 45.9766L60.293 45.3438C60.293 42.8828 60.5391 40.6211 61.0312 38.5586C61.5234 36.4727 62.2383 34.6562 63.1758 33.1094C64.1367 31.5625 65.3086 30.3672 66.6914 29.5234C68.0742 28.6797 69.6562 28.2578 71.4375 28.2578C72 28.2578 72.5742 28.3047 73.1602 28.3984C73.7461 28.4688 74.2266 28.5742 74.6016 28.7148ZM76.7109 48.3672V47.6289C76.7109 44.8398 77.1094 42.2734 77.9062 39.9297C78.7031 37.5625 79.8633 35.5117 81.3867 33.7773C82.9102 32.043 84.7852 30.6953 87.0117 29.7344C89.2383 28.75 91.793 28.2578 94.6758 28.2578C97.5586 28.2578 100.125 28.75 102.375 29.7344C104.625 30.6953 106.512 32.043 108.035 33.7773C109.582 35.5117 110.754 37.5625 111.551 39.9297C112.348 42.2734 112.746 44.8398 112.746 47.6289V48.3672C112.746 51.1328 112.348 53.6992 111.551 56.0664C110.754 58.4102 109.582 60.4609 108.035 62.2188C106.512 63.9531 104.637 65.3008 102.41 66.2617C100.184 67.2227 97.6289 67.7031 94.7461 67.7031C91.8633 67.7031 89.2969 67.2227 87.0469 66.2617C84.8203 65.3008 82.9336 63.9531 81.3867 62.2188C79.8633 60.4609 78.7031 58.4102 77.9062 56.0664C77.1094 53.6992 76.7109 51.1328 76.7109 48.3672ZM86.8359 47.6289V48.3672C86.8359 49.9609 86.9766 51.4492 87.2578 52.832C87.5391 54.2148 87.9844 55.4336 88.5938 56.4883C89.2266 57.5195 90.0469 58.3281 91.0547 58.9141C92.0625 59.5 93.293 59.793 94.7461 59.793C96.1523 59.793 97.3594 59.5 98.3672 58.9141C99.375 58.3281 100.184 57.5195 100.793 56.4883C101.402 55.4336 101.848 54.2148 102.129 52.832C102.434 51.4492 102.586 49.9609 102.586 48.3672V47.6289C102.586 46.082 102.434 44.6289 102.129 43.2695C101.848 41.8867 101.391 40.668 100.758 39.6133C100.148 38.5352 99.3398 37.6914 98.332 37.082C97.3242 36.4727 96.1055 36.168 94.6758 36.168C93.2461 36.168 92.0273 36.4727 91.0195 37.082C90.0352 37.6914 89.2266 38.5352 88.5938 39.6133C87.9844 40.668 87.5391 41.8867 87.2578 43.2695C86.9766 44.6289 86.8359 46.082 86.8359 47.6289ZM141.469 57.8945V28.9609H151.594V67H142.066L141.469 57.8945ZM142.594 50.0898L145.582 50.0195C145.582 52.5508 145.289 54.9062 144.703 57.0859C144.117 59.2422 143.238 61.1172 142.066 62.7109C140.895 64.2812 139.418 65.5117 137.637 66.4023C135.855 67.2695 133.758 67.7031 131.344 67.7031C129.492 67.7031 127.781 67.4453 126.211 66.9297C124.664 66.3906 123.328 65.5586 122.203 64.4336C121.102 63.2852 120.234 61.8203 119.602 60.0391C118.992 58.2344 118.688 56.0664 118.688 53.5352V28.9609H128.812V53.6055C128.812 54.7305 128.941 55.6797 129.199 56.4531C129.48 57.2266 129.867 57.8594 130.359 58.3516C130.852 58.8438 131.426 59.1953 132.082 59.4062C132.762 59.6172 133.512 59.7227 134.332 59.7227C136.418 59.7227 138.059 59.3008 139.254 58.457C140.473 57.6133 141.328 56.4648 141.82 55.0117C142.336 53.5352 142.594 51.8945 142.594 50.0898ZM169.453 36.2734V81.625H159.328V28.9609H168.715L169.453 36.2734ZM193.535 47.5586V48.2969C193.535 51.0625 193.207 53.6289 192.551 55.9961C191.918 58.3633 190.98 60.4258 189.738 62.1836C188.496 63.918 186.949 65.2773 185.098 66.2617C183.27 67.2227 181.16 67.7031 178.77 67.7031C176.449 67.7031 174.434 67.2344 172.723 66.2969C171.012 65.3594 169.57 64.0469 168.398 62.3594C167.25 60.6484 166.324 58.668 165.621 56.418C164.918 54.168 164.379 51.7539 164.004 49.1758V47.2422C164.379 44.4766 164.918 41.9453 165.621 39.6484C166.324 37.3281 167.25 35.3242 168.398 33.6367C169.57 31.9258 171 30.6016 172.688 29.6641C174.398 28.7266 176.402 28.2578 178.699 28.2578C181.113 28.2578 183.234 28.7148 185.062 29.6289C186.914 30.543 188.461 31.8555 189.703 33.5664C190.969 35.2773 191.918 37.3164 192.551 39.6836C193.207 42.0508 193.535 44.6758 193.535 47.5586ZM183.375 48.2969V47.5586C183.375 45.9414 183.234 44.4531 182.953 43.0938C182.695 41.7109 182.273 40.5039 181.688 39.4727C181.125 38.4414 180.375 37.6445 179.438 37.082C178.523 36.4961 177.41 36.2031 176.098 36.2031C174.715 36.2031 173.531 36.4258 172.547 36.8711C171.586 37.3164 170.801 37.9609 170.191 38.8047C169.582 39.6484 169.125 40.6562 168.82 41.8281C168.516 43 168.328 44.3242 168.258 45.8008V50.6875C168.375 52.4219 168.703 53.9805 169.242 55.3633C169.781 56.7227 170.613 57.8008 171.738 58.5977C172.863 59.3945 174.34 59.793 176.168 59.793C177.504 59.793 178.629 59.5 179.543 58.9141C180.457 58.3047 181.195 57.4727 181.758 56.418C182.344 55.3633 182.754 54.1445 182.988 52.7617C183.246 51.3789 183.375 49.8906 183.375 48.2969Z" fill="#00ACFF"/>
<path d="M228.727 15.8125H239.238V49.6328C239.238 53.5703 238.395 56.8867 236.707 59.582C235.043 62.2773 232.734 64.3047 229.781 65.6641C226.852 67.0234 223.477 67.7031 219.656 67.7031C215.836 67.7031 212.438 67.0234 209.461 65.6641C206.508 64.3047 204.188 62.2773 202.5 59.582C200.836 56.8867 200.004 53.5703 200.004 49.6328V15.8125H210.551V49.6328C210.551 51.9297 210.914 53.8047 211.641 55.2578C212.367 56.7109 213.41 57.7773 214.77 58.457C216.152 59.1367 217.781 59.4766 219.656 59.4766C221.578 59.4766 223.207 59.1367 224.543 58.457C225.902 57.7773 226.934 56.7109 227.637 55.2578C228.363 53.8047 228.727 51.9297 228.727 49.6328V15.8125ZM257.414 36.2734V81.625H247.289V28.9609H256.676L257.414 36.2734ZM281.496 47.5586V48.2969C281.496 51.0625 281.168 53.6289 280.512 55.9961C279.879 58.3633 278.941 60.4258 277.699 62.1836C276.457 63.918 274.91 65.2773 273.059 66.2617C271.23 67.2227 269.121 67.7031 266.73 67.7031C264.41 67.7031 262.395 67.2344 260.684 66.2969C258.973 65.3594 257.531 64.0469 256.359 62.3594C255.211 60.6484 254.285 58.668 253.582 56.418C252.879 54.168 252.34 51.7539 251.965 49.1758V47.2422C252.34 44.4766 252.879 41.9453 253.582 39.6484C254.285 37.3281 255.211 35.3242 256.359 33.6367C257.531 31.9258 258.961 30.6016 260.648 29.6641C262.359 28.7266 264.363 28.2578 266.66 28.2578C269.074 28.2578 271.195 28.7148 273.023 29.6289C274.875 30.543 276.422 31.8555 277.664 33.5664C278.93 35.2773 279.879 37.3164 280.512 39.6836C281.168 42.0508 281.496 44.6758 281.496 47.5586ZM271.336 48.2969V47.5586C271.336 45.9414 271.195 44.4531 270.914 43.0938C270.656 41.7109 270.234 40.5039 269.648 39.4727C269.086 38.4414 268.336 37.6445 267.398 37.082C266.484 36.4961 265.371 36.2031 264.059 36.2031C262.676 36.2031 261.492 36.4258 260.508 36.8711C259.547 37.3164 258.762 37.9609 258.152 38.8047C257.543 39.6484 257.086 40.6562 256.781 41.8281C256.477 43 256.289 44.3242 256.219 45.8008V50.6875C256.336 52.4219 256.664 53.9805 257.203 55.3633C257.742 56.7227 258.574 57.8008 259.699 58.5977C260.824 59.3945 262.301 59.793 264.129 59.793C265.465 59.793 266.59 59.5 267.504 58.9141C268.418 58.3047 269.156 57.4727 269.719 56.418C270.305 55.3633 270.715 54.1445 270.949 52.7617C271.207 51.3789 271.336 49.8906 271.336 48.2969Z" fill="#005A86"/>
</svg>
